<svg xmlns="http://www.w3.org/2000/svg" viewBox="0 0 666 233.64"><defs><style>.cls-1{fill:#fff;}.cls-2{fill:lime;}</style></defs><title>logo blanco</title><g id="Capa_2" data-name="Capa 2"><g id="Capa_1-2" data-name="Capa 1"><path class="cls-1" d="M104,114H95.31l-6-13.48H63L57,114H48.61L72.87,60.44H79.7Zm-7.2-2.23h3.75L78.26,62.66h-4L52.06,111.82h3.46l6-13.48H90.78ZM89.51,95.38H62.83L76.21,65.53ZM66.27,93.16H86.09L76.21,71Z"/><path class="cls-1" d="M147.84,114h-36.7V60.8h8v45.7h28.72Zm-34.47-2.23h32.25v-3.09H116.9V63h-3.53Z"/><path class="cls-1" d="M175.05,114H156.23V60.8h18.82c16.35,0,28.22,11.14,28.22,26.48v.15C203.27,102.85,191.41,114,175.05,114Zm-16.6-2.23h16.6c15.06,0,26-10.26,26-24.39v-.15c0-14.05-10.93-24.25-26-24.25h-16.6Zm16.6-3.09H162V66.12h13.07c12.89,0,22.25,9,22.25,21.3v.15C197.3,100,188.15,108.73,175.05,108.73Zm-10.84-2.23h10.84c11.79,0,20-7.78,20-18.93v-.15c0-11.23-8.23-19.08-20-19.08H164.21Z"/><path class="cls-1" d="M238,114.92c-15.43,0-27.06-11.76-27.06-27.35v-.15a27.06,27.06,0,0,1,27.2-27.5c15.43,0,27.06,11.76,27.06,27.35v.15A27.06,27.06,0,0,1,238,114.92Zm.14-52.77a24.86,24.86,0,0,0-25,25.27v.15c0,14.32,10.68,25.13,24.84,25.13a24.86,24.86,0,0,0,25-25.27v-.15C263,73,252.29,62.15,238.13,62.15Zm0,47.45c-11.9,0-21.23-9.74-21.23-22.18v-.15c0-12.56,9.06-22,21.08-22S259.21,75,259.21,87.42v.15C259.21,100.13,250.15,109.6,238.13,109.6ZM238,67.47c-10.75,0-18.86,8.51-18.86,19.8v.15c0,11.37,8.17,20,19,20S257,98.86,257,87.57v-.15C257,76.05,248.82,67.47,238,67.47Z"/><path class="cls-1" d="M304.93,114h-8V60.8h38.89v7.55h-30.9v16h27.62v7.47H304.93Zm-5.76-2.23h3.53V89.59h27.62v-3H302.7V66.12h30.9V63H299.17Z"/><path class="cls-1" d="M390.27,114h-9.86L365.62,94.22H352.71V114h-8V60.8h23c6.36,0,11.79,1.93,15.29,5.42a15.17,15.17,0,0,1,4.26,10.85v.15c0,7.78-4.83,13.51-13,15.59Zm-8.74-2.23h4.29L370.4,91.32l1.77-.32c8.22-1.49,12.93-6.51,12.93-13.77v-.15a13,13,0,0,0-3.61-9.28c-3.08-3.08-8-4.77-13.72-4.77H347v48.79h3.53V92h16.25ZM367.27,89H350.48V66.12h16.85c8.87,0,14.16,4.18,14.16,11.17v.15C381.5,84.38,375.78,89,367.27,89Zm-14.56-2.23h14.56c7.29,0,12-3.68,12-9.38v-.15c0-5.68-4.35-8.94-11.93-8.94H352.71Z"/><path class="cls-1" d="M447.75,114H439.1l-6-13.48H406.8l-6,13.48H392.4l24.26-53.61h6.83Zm-7.2-2.23h3.75L422.05,62.66h-4l-22.24,49.16h3.46l6-13.48h29.21Zm-7.24-16.43H406.62L420,65.53Zm-23.25-2.23h19.82L420,71Z"/><path class="cls-1" d="M500.3,114h-6.24L462.77,74.31V114h-7.84V60.8h7l30.49,38.79V60.8h7.84Zm-5.16-2.23h2.94V63h-3.39v43L460.9,63h-3.74v48.79h3.39V67.88Z"/><path class="cls-1" d="M536.91,114.92c-15.22,0-26.7-11.76-26.7-27.35v-.15c0-15.42,11.82-27.5,26.91-27.5,10.33,0,16,4,20.66,8.39l.8.76-5.45,5.86-.81-.77c-4.94-4.69-9.51-6.69-15.27-6.69-10.62,0-18.64,8.51-18.64,19.8v.15c0,11.19,8.19,20,18.64,20,6.9,0,11.27-2.82,15.7-7.06l.78-.74,5.36,5.26-.78.79C553.57,110.22,547.5,114.92,536.91,114.92Zm.22-52.77c-13.84,0-24.69,11.1-24.69,25.27v.15c0,14.32,10.52,25.13,24.47,25.13,7.53,0,13.06-2.29,18.82-7.85l-2.22-2.18c-4.56,4.19-9.23,6.94-16.45,6.94-11.7,0-20.86-9.74-20.86-22.18v-.15c0-12.56,9-22,20.86-22,7.47,0,12.44,3.35,16,6.54l2.42-2.6A25.23,25.23,0,0,0,537.12,62.15Z"/><path class="cls-1" d="M589.57,114.92c-15.43,0-27.06-11.76-27.06-27.35v-.15a27.06,27.06,0,0,1,27.21-27.5c15.43,0,27.06,11.76,27.06,27.35v.15A27.06,27.06,0,0,1,589.57,114.92Zm.14-52.77a24.86,24.86,0,0,0-25,25.27v.15c0,14.32,10.68,25.13,24.84,25.13a24.86,24.86,0,0,0,25-25.27v-.15C614.55,73,603.87,62.15,589.71,62.15Zm0,47.45c-11.9,0-21.23-9.74-21.23-22.18v-.15c0-12.56,9.06-22,21.08-22S610.8,75,610.8,87.42v.15C610.8,100.13,601.73,109.6,589.71,109.6Zm-.14-42.13c-10.75,0-18.86,8.51-18.86,19.8v.15c0,11.37,8.17,20,19,20s18.86-8.51,18.86-19.8v-.15C608.57,76.05,600.4,67.47,589.57,67.47Z"/><polygon class="cls-1" points="663.32 72.51 661.52 72.51 661.52 1.79 4.48 1.79 4.48 72.51 2.69 72.51 2.69 0 663.32 0 663.32 72.51"/><polygon class="cls-1" points="666 233.64 0 233.64 0 158.44 7.16 158.44 7.16 226.48 658.84 226.48 658.84 158.44 666 158.44 666 233.64"/><rect class="cls-2" x="316.87" y="190.25" width="32.26" height="1.11"/><path class="cls-1" d="M139.74,155.23h1.15l5,11h-1.32l-1.28-2.88h-5.94L136,166.21h-1.26Zm3,7-2.48-5.56-2.49,5.56Z"/><path class="cls-1" d="M176,155.3h4.69a4.3,4.3,0,0,1,3.1,1.09,3,3,0,0,1,.84,2.15v0a3.19,3.19,0,0,1-3,3.18l3.35,4.46h-1.51L180.4,162h-3.12v4.24H176Zm4.58,5.56c1.64,0,2.81-.84,2.81-2.24v0c0-1.34-1-2.15-2.79-2.15h-3.37v4.43Z"/><path class="cls-1" d="M223.86,165.23a5.58,5.58,0,0,1-9-4.44v0a5.56,5.56,0,1,1,11.13,0v0a5.66,5.66,0,0,1-1.31,3.66l1.45,1.2-.84.92Zm-.9-.79-2-1.73.83-.92,2,1.82a4.59,4.59,0,0,0,1-2.82v0a4.34,4.34,0,0,0-4.3-4.5,4.29,4.29,0,0,0-4.27,4.47v0a4.34,4.34,0,0,0,4.3,4.5A4.11,4.11,0,0,0,223,164.44Z"/><path class="cls-1" d="M256.45,161.65V155.3h1.23v6.27c0,2.35,1.25,3.68,3.33,3.68s3.29-1.22,3.29-3.6V155.3h1.23v6.25c0,3.18-1.82,4.83-4.55,4.83S256.45,164.73,256.45,161.65Z"/><path class="cls-1" d="M296.59,155.3h1.23v10.91h-1.23Z"/><path class="cls-1" d="M331.93,156.44h-3.66V155.3h8.57v1.14h-3.66v9.77h-1.25Z"/><path class="cls-1" d="M367.18,155.3h7.89v1.12h-6.65v3.72h6v1.12h-6v3.82h6.73v1.12h-8Z"/><path class="cls-1" d="M405.17,160.79v0a5.5,5.5,0,0,1,5.52-5.64,5.68,5.68,0,0,1,4.25,1.73l-.84.9a4.74,4.74,0,0,0-3.43-1.5,4.28,4.28,0,0,0-4.22,4.47v0a4.3,4.3,0,0,0,4.22,4.5,4.73,4.73,0,0,0,3.52-1.57l.81.8a5.68,5.68,0,0,1-4.36,1.92A5.44,5.44,0,0,1,405.17,160.79Z"/><path class="cls-1" d="M448.07,156.44H444.4V155.3H453v1.14h-3.66v9.77h-1.25Z"/><path class="cls-1" d="M482.08,160.79v0a5.56,5.56,0,1,1,11.13,0v0a5.56,5.56,0,1,1-11.13,0Zm9.85,0v0a4.34,4.34,0,0,0-4.3-4.5,4.29,4.29,0,0,0-4.27,4.47v0a4.34,4.34,0,0,0,4.3,4.5A4.29,4.29,0,0,0,491.93,160.79Z"/><path class="cls-1" d="M523,164.62l.76-.9a5.19,5.19,0,0,0,3.74,1.54c1.46,0,2.43-.78,2.43-1.85v0c0-1-.55-1.59-2.84-2.07-2.51-.55-3.66-1.36-3.66-3.15v0c0-1.71,1.51-3,3.58-3a5.69,5.69,0,0,1,3.83,1.34l-.72.95a4.79,4.79,0,0,0-3.15-1.18c-1.42,0-2.32.78-2.32,1.76v0c0,1,.56,1.6,3,2.12s3.55,1.42,3.55,3.09v0c0,1.87-1.56,3.09-3.72,3.09A6.38,6.38,0,0,1,523,164.62Z"/></g></g></svg>