<svg xmlns="http://www.w3.org/2000/svg" viewBox="0 0 840 294.68"><defs><style>.cls-1{fill:#1a1a1a;}.cls-2{fill:lime;}</style></defs><title>ALDO NEGRO</title><g id="Capa_2" data-name="Capa 2"><g id="Capa_1-2" data-name="Capa 1"><path class="cls-1" d="M131.12,143.84h-10.9l-7.54-17H79.47l-7.63,17H61.31L91.91,76.23h8.62ZM122,141h4.73L98.71,79h-5L65.66,141H70l7.63-17H114.5ZM112.9,120.3H79.24L96.12,82.65ZM83.58,117.5h25l-12.46-28Z"/><path class="cls-1" d="M186.47,143.84H140.18V76.69h10.07v57.64h36.22ZM143,141h40.67v-3.9H147.44V79.49H143Z"/><path class="cls-1" d="M220.79,143.84H197V76.69h23.74c20.63,0,35.6,14,35.6,33.4v.18C256.38,129.72,241.41,143.84,220.79,143.84ZM199.85,141h20.93c19,0,32.79-12.94,32.79-30.77v-.18c0-17.72-13.79-30.59-32.79-30.59H199.85Zm20.93-3.9H204.3V83.4h16.48c16.26,0,28.06,11.3,28.06,26.87v.19C248.84,126.16,237.31,137.13,220.79,137.13Zm-13.68-2.81h13.68c14.87,0,25.25-9.82,25.25-23.88v-.19c0-14.17-10.38-24.06-25.25-24.06H207.11Z"/><path class="cls-1" d="M300.16,144.95c-19.46,0-34.13-14.83-34.13-34.5v-.19c0-19.45,15.07-34.68,34.31-34.68,19.46,0,34.13,14.83,34.13,34.5v.18C334.47,129.71,319.4,144.95,300.16,144.95Zm.18-66.56c-17.67,0-31.51,14-31.51,31.88v.19c0,18.07,13.47,31.69,31.32,31.69,17.67,0,31.51-14,31.51-31.88v-.18C331.67,92,318.2,78.39,300.34,78.39Zm0,59.85c-15,0-26.77-12.29-26.77-28v-.18c0-15.84,11.43-27.79,26.59-27.79s26.78,12.29,26.78,28v.19C326.94,126.29,315.5,138.24,300.34,138.24Zm-.18-53.14c-13.56,0-23.78,10.74-23.78,25v.18c0,14.35,10.3,25.16,24,25.16s23.79-10.74,23.79-25v-.19C324.13,95.92,313.83,85.1,300.16,85.1Z"/><path class="cls-1" d="M384.59,143.84H374.53V76.69h49V86.2h-39v20.18h34.84v9.42H384.59ZM377.33,141h4.45V113h34.84v-3.81H381.79V83.4h39V79.49H377.33Z"/><path class="cls-1" d="M492.23,143.84H479.8l-18.66-25H444.86v25H434.79V76.69h29.07c8,0,14.87,2.43,19.28,6.84a19.13,19.13,0,0,1,5.38,13.69v.18c0,9.82-6.1,17-16.43,19.66Zm-11-2.81h5.4l-19.44-25.86,2.24-.41c10.37-1.88,16.31-8.21,16.31-17.37v-.18a16.35,16.35,0,0,0-4.56-11.7c-3.88-3.88-10-6-17.3-6H437.6V141h4.45V116h20.49Zm-18-28.72H442.05V83.4h21.26c11.18,0,17.86,5.27,17.86,14.09v.18C481.17,106.43,474,112.31,463.22,112.31Zm-18.36-2.81h18.36c9.2,0,15.14-4.65,15.14-11.84v-.18c0-7.17-5.49-11.28-15.05-11.28H444.86Z"/><path class="cls-1" d="M564.73,143.84h-10.9l-7.54-17h-33.2l-7.63,17H494.92l30.59-67.61h8.62ZM555.65,141h4.73L532.32,79h-5l-28.05,62h4.36l7.63-17h36.85Zm-9.14-20.73H512.86l16.88-37.66Zm-29.32-2.81h25l-12.46-28Z"/><path class="cls-1" d="M631,143.84h-7.88L583.67,93.72v50.12h-9.89V76.69h8.89l38.45,48.92V76.69H631ZM624.5,141h3.71V79.49h-4.27v54.23L581.31,79.49h-4.72V141h4.27V85.62Z"/><path class="cls-1" d="M677.18,144.95c-19.2,0-33.67-14.83-33.67-34.5v-.19c0-19.45,14.91-34.68,33.95-34.68,13,0,20.23,5.09,26.06,10.59l1,1-6.88,7.4-1-1c-6.23-5.92-12-8.44-19.26-8.44-13.4,0-23.51,10.74-23.51,25v.18c0,14.11,10.33,25.16,23.51,25.16,8.7,0,14.21-3.56,19.81-8.9l1-.94,6.75,6.63-1,1C698.19,139,690.54,144.95,677.18,144.95Zm.27-66.56c-17.46,0-31.14,14-31.14,31.88v.19c0,18.07,13.27,31.69,30.87,31.69,9.5,0,16.47-2.88,23.74-9.9l-2.8-2.75c-5.76,5.29-11.64,8.75-20.75,8.75-14.75,0-26.31-12.29-26.31-28v-.18c0-15.84,11.31-27.79,26.31-27.79,9.43,0,15.69,4.22,20.15,8.25l3-3.28C695.33,82.54,688.76,78.39,677.45,78.39Z"/><path class="cls-1" d="M743.6,144.95c-19.46,0-34.13-14.83-34.13-34.5v-.19c0-19.45,15.07-34.68,34.31-34.68,19.46,0,34.13,14.83,34.13,34.5v.18C777.91,129.71,762.84,144.95,743.6,144.95Zm.18-66.56c-17.67,0-31.51,14-31.51,31.88v.19c0,18.07,13.47,31.69,31.33,31.69,17.67,0,31.51-14,31.51-31.88v-.18C775.11,92,761.64,78.39,743.78,78.39Zm0,59.85c-15,0-26.77-12.29-26.77-28v-.18c0-15.84,11.43-27.79,26.59-27.79s26.78,12.29,26.78,28v.19C770.38,126.29,758.94,138.24,743.78,138.24ZM743.6,85.1c-13.56,0-23.78,10.74-23.78,25v.18c0,14.35,10.3,25.16,24,25.16s23.79-10.74,23.79-25v-.19C767.57,95.92,757.27,85.1,743.6,85.1Z"/><polygon class="cls-1" points="836.61 91.45 834.36 91.45 834.36 2.26 5.64 2.26 5.64 91.45 3.39 91.45 3.39 0 836.61 0 836.61 91.45"/><polygon class="cls-1" points="840 294.68 0 294.68 0 199.84 9.03 199.84 9.03 285.64 830.97 285.64 830.97 199.84 840 199.84 840 294.68"/><rect class="cls-2" x="399.65" y="239.95" width="40.69" height="1.4"/><path class="cls-1" d="M176.25,195.78h1.45L184,209.64h-1.67L180.7,206h-7.49l-1.63,3.64H170Zm3.83,8.82-3.13-7-3.14,7Z"/><path class="cls-1" d="M222,195.88H228a5.43,5.43,0,0,1,3.91,1.38,3.8,3.8,0,0,1,1.06,2.71v0c0,2.28-1.57,3.62-3.73,4l4.23,5.62h-1.91l-4-5.35H223.6v5.35H222Zm5.78,7c2.06,0,3.54-1.06,3.54-2.83v0c0-1.69-1.3-2.71-3.52-2.71H223.6v5.58Z"/><path class="cls-1" d="M282.34,208.4A7,7,0,0,1,271,202.8v0a7,7,0,1,1,14,0v0a7.14,7.14,0,0,1-1.65,4.62l1.83,1.51L284.15,210Zm-1.14-1-2.56-2.18,1-1.16,2.54,2.3a5.79,5.79,0,0,0,1.2-3.56v0a5.47,5.47,0,0,0-5.43-5.68,5.4,5.4,0,0,0-5.39,5.64v0a5.47,5.47,0,0,0,5.43,5.68A5.19,5.19,0,0,0,281.2,207.4Z"/><path class="cls-1" d="M323.45,203.88v-8H325v7.9c0,3,1.57,4.64,4.21,4.64s4.15-1.53,4.15-4.54v-8h1.55v7.88c0,4-2.3,6.09-5.74,6.09S323.45,207.77,323.45,203.88Z"/><path class="cls-1" d="M374.08,195.88h1.55v13.76h-1.55Z"/><path class="cls-1" d="M418.65,197.31H414v-1.43h10.81v1.43h-4.62v12.32h-1.57Z"/><path class="cls-1" d="M463.11,195.88h9.95v1.42h-8.39V202h7.51v1.42h-7.51v4.82h8.49v1.42h-10Z"/><path class="cls-1" d="M511,202.8v0a6.93,6.93,0,0,1,7-7.12,7.16,7.16,0,0,1,5.37,2.18L522.28,199a6,6,0,0,0-4.32-1.89,5.39,5.39,0,0,0-5.33,5.64v0a5.43,5.43,0,0,0,5.33,5.68,6,6,0,0,0,4.44-2l1,1a7.16,7.16,0,0,1-5.5,2.42A6.86,6.86,0,0,1,511,202.8Z"/><path class="cls-1" d="M565.13,197.31h-4.62v-1.43h10.81v1.43H566.7v12.32h-1.57Z"/><path class="cls-1" d="M608,202.8v0a7,7,0,1,1,14,0v0a7,7,0,1,1-14,0Zm12.42,0v0a5.47,5.47,0,0,0-5.43-5.68,5.4,5.4,0,0,0-5.39,5.64v0a5.47,5.47,0,0,0,5.42,5.68A5.41,5.41,0,0,0,620.45,202.8Z"/><path class="cls-1" d="M659.7,207.63l1-1.14a6.55,6.55,0,0,0,4.72,1.95c1.85,0,3.07-1,3.07-2.34v0c0-1.28-.69-2-3.58-2.61-3.17-.69-4.62-1.71-4.62-4v0c0-2.16,1.91-3.75,4.52-3.75a7.17,7.17,0,0,1,4.83,1.69l-.9,1.2a6,6,0,0,0-4-1.49c-1.79,0-2.93,1-2.93,2.22v0c0,1.3.71,2,3.73,2.67S670,203.8,670,205.9v0c0,2.36-2,3.89-4.7,3.89A8,8,0,0,1,659.7,207.63Z"/></g></g></svg>