<svg xmlns="http://www.w3.org/2000/svg" viewBox="0 0 18.36 20.55"><defs><style>.cls-1{fill:#333;}</style></defs><title>arroba</title><g id="Capa_2" data-name="Capa 2"><g id="Capa_1-2" data-name="Capa 1"><path id="_2" data-name="2" class="cls-1" d="M17.24,4A6.85,6.85,0,0,0,13.43.62,10.1,10.1,0,0,0,4.24,1.74C1.51,3.68,0,7,0,11c0,4.71,2.09,7,3.85,8.17a8.73,8.73,0,0,0,4.38,1.33H8.6a9.39,9.39,0,0,0,3.86-.81.69.69,0,1,0-.58-1.26A7.9,7.9,0,0,1,4.6,18c-2.1-1.35-3.21-3.77-3.21-7,0-3.59,1.3-6.49,3.66-8.16a8.71,8.71,0,0,1,7.92-1c3,1,4,4.34,4,7.07a8.9,8.9,0,0,1-.71,3.57,3.28,3.28,0,0,1-1.71,1.83c-.93.32-1.29,0-1.41,0-.66-.49-.76-1.9-.75-2.37l.47-5.48a.69.69,0,0,0-.27-.61,5.14,5.14,0,0,0-2.89-1A4.24,4.24,0,0,0,6.94,6a6,6,0,0,0-1.79,3c-.5,1.51-.82,4.34.33,5.93A2.72,2.72,0,0,0,7.78,16a4.16,4.16,0,0,0,2.45-.81,5.18,5.18,0,0,0,1.11-1.11,3,3,0,0,0,1,1.38,2.77,2.77,0,0,0,2.69.25c2.3-.78,3.35-3.93,3.36-6.7A10.84,10.84,0,0,0,17.24,4ZM7.78,14.61A1.33,1.33,0,0,1,6.61,14c-.78-1.09-.54-3.43-.13-4.68A4.84,4.84,0,0,1,7.83,7,2.89,2.89,0,0,1,9.71,6.3a3.64,3.64,0,0,1,1.73.49l-.43,5C10.05,14.24,8.58,14.61,7.78,14.61Z"/></g></g></svg>