<svg xmlns="http://www.w3.org/2000/svg" viewBox="0 0 21.04 20.08"><defs><style>.cls-1{fill:#fff;}</style></defs><title>linkedinblanco</title><g id="Capa_2" data-name="Capa 2"><g id="Capa_1-2" data-name="Capa 1"><g id="Capa_2-2" data-name="Capa 2"><g id="Capa_1-2-2" data-name="Capa 1-2"><path id="LinkedIn" class="cls-1" d="M21,12.31v7.76h-4.5V12.83c0-1.82-.65-3.06-2.28-3.06A2.46,2.46,0,0,0,12,11.42a3.08,3.08,0,0,0-.15,1.1v7.56H7.3s.06-12.27,0-13.54h4.5V8.46h0a4.47,4.47,0,0,1,4.06-2.24C18.82,6.22,21,8.15,21,12.31ZM2.59,0a2.35,2.35,0,1,0-.06,4.68h0A2.35,2.35,0,1,0,2.59,0ZM.31,20.07h4.5V6.54H.31Z"/></g></g></g></g></svg>