<svg xmlns="http://www.w3.org/2000/svg" viewBox="0 0 932 326.95"><defs><style>.cls-1{fill:#fff;}.cls-2{fill:#dafa50;}</style></defs><title>logoblanco</title><g id="Capa_2" data-name="Capa 2"><g id="Capa_1-2" data-name="Capa 1"><path class="cls-1" d="M145.48,159.59h-12.1L125,140.72H88.18l-8.47,18.87H68l33.94-75h9.56Zm-10.07-3.11h5.25L109.52,87.69H104L72.86,156.48h4.84l8.47-18.87H127Zm-10.14-23H87.92L106.65,91.7Zm-32.53-3.11h27.74l-13.83-31Z"/><path class="cls-1" d="M206.89,159.59H155.53V85.08H166.7v64h40.19Zm-48.24-3.11h45.13v-4.32H163.58v-64h-4.94Z"/><path class="cls-1" d="M245,159.59H218.63V85.08H245c22.89,0,39.49,15.58,39.49,37.05v.21C284.46,143.93,267.85,159.59,245,159.59Zm-23.23-3.11H245c21.08,0,36.38-14.36,36.38-34.14v-.21c0-19.67-15.3-33.94-36.38-33.94H221.74ZM245,152.15H226.68V92.53H245c18,0,31.13,12.54,31.13,29.81v.21C276.1,140,263.3,152.15,245,152.15ZM229.79,149H245c16.5,0,28-10.89,28-26.49v-.21c0-15.72-11.52-26.7-28-26.7H229.79Z"/><path class="cls-1" d="M333,160.82c-21.59,0-37.87-16.45-37.87-38.28v-.21c0-21.58,16.72-38.48,38.07-38.48,21.59,0,37.87,16.46,37.87,38.28v.21C371.11,143.92,354.38,160.82,333,160.82Zm.2-73.85c-19.6,0-35,15.54-35,35.37v.21c0,20,14.94,35.16,34.76,35.16,19.6,0,35-15.54,35-35.37v-.21C368,102.09,353.05,87,333.24,87Zm0,66.4c-16.66,0-29.7-13.63-29.7-31v-.21c0-17.58,12.68-30.83,29.5-30.83,16.66,0,29.71,13.63,29.71,31v.21C362.75,140.12,350.06,153.38,333.24,153.38Zm-.2-59c-15,0-26.39,11.91-26.39,27.72v.21c0,15.92,11.43,27.92,26.59,27.92s26.39-11.91,26.39-27.72v-.21C359.63,106.43,348.2,94.42,333,94.42Z"/><path class="cls-1" d="M426.72,159.59H415.55V85.08H470V95.65H426.72V118h38.66v10.45H426.72Zm-8.06-3.11h4.94v-31.1h38.66v-4.23H423.6V92.53h43.25V88.2H418.66Z"/><path class="cls-1" d="M546.14,159.59H532.35l-20.7-27.73H493.58v27.73H482.41V85.08h32.25c8.9,0,16.5,2.69,21.4,7.59a21.23,21.23,0,0,1,6,15.19v.21c0,10.89-6.76,18.9-18.23,21.81Zm-12.23-3.11h6l-21.57-28.69,2.48-.45c11.5-2.09,18.1-9.11,18.1-19.27v-.21a18.14,18.14,0,0,0-5.06-13c-4.31-4.31-11.13-6.68-19.19-6.68H485.53v68.28h4.94V128.74H513.2Zm-20-31.86H490.47V92.53h23.59c12.41,0,19.81,5.84,19.81,15.63v.21C533.87,118.09,525.87,124.61,514,124.61Zm-20.38-3.11H514c10.2,0,16.8-5.15,16.8-13.13v-.21c0-8-6.09-12.52-16.7-12.52H493.58Z"/><path class="cls-1" d="M626.58,159.59h-12.1l-8.36-18.87H569.28l-8.47,18.87H549.13l33.94-75h9.56Zm-10.07-3.11h5.25L590.62,87.69h-5.54L554,156.48h4.84l8.47-18.87h40.88Zm-10.14-23H569L587.75,91.7Zm-32.53-3.11h27.74l-13.83-31Z"/><path class="cls-1" d="M700.12,159.59h-8.74L647.6,104v55.61h-11V85.08h9.86l42.67,54.28V85.08h11Zm-7.23-3.11H697V88.2h-4.74v60.16L645,88.2h-5.23v68.28h4.74V95Z"/><path class="cls-1" d="M751.35,160.82c-21.3,0-37.36-16.45-37.36-38.28v-.21c0-21.58,16.54-38.48,37.66-38.48,14.46,0,22.44,5.65,28.91,11.75l1.12,1.06-7.63,8.21-1.14-1.08c-6.91-6.57-13.31-9.37-21.37-9.37-14.87,0-26.08,11.91-26.08,27.72v.21c0,15.66,11.46,27.92,26.08,27.92,9.66,0,15.77-3.95,22-9.87l1.09-1,7.49,7.36-1.1,1.11C774.66,154.25,766.17,160.82,751.35,160.82Zm.3-73.85c-19.37,0-34.55,15.54-34.55,35.37v.21c0,20,14.72,35.16,34.25,35.16,10.54,0,18.28-3.2,26.34-11l-3.11-3.05c-6.39,5.87-12.92,9.71-23,9.71-16.37,0-29.2-13.63-29.2-31v-.21c0-17.58,12.55-30.83,29.2-30.83,10.46,0,17.41,4.68,22.36,9.16l3.38-3.64C771.48,91.58,764.19,87,751.65,87Z"/><path class="cls-1" d="M825,160.82c-21.59,0-37.87-16.45-37.87-38.28v-.21c0-21.58,16.72-38.48,38.07-38.48,21.59,0,37.87,16.46,37.87,38.28v.21C863.11,143.92,846.39,160.82,825,160.82Zm.2-73.85c-19.6,0-35,15.54-35,35.37v.21c0,20,14.94,35.16,34.76,35.16,19.6,0,35-15.54,35-35.37v-.21C860,102.09,845.06,87,825.25,87Zm0,66.4c-16.66,0-29.7-13.63-29.7-31v-.21c0-17.58,12.68-30.83,29.5-30.83,16.66,0,29.71,13.63,29.71,31v.21C854.75,140.12,842.07,153.38,825.25,153.38Zm-.2-59c-15,0-26.39,11.91-26.39,27.72v.21c0,15.92,11.43,27.92,26.59,27.92s26.39-11.91,26.39-27.72v-.21C851.64,106.43,840.21,94.42,825,94.42Z"/><polygon class="cls-1" points="928.24 101.47 925.74 101.47 925.74 2.5 6.26 2.5 6.26 101.47 3.76 101.47 3.76 0 928.24 0 928.24 101.47"/><polygon class="cls-1" points="932 326.95 0 326.95 0 221.73 10.02 221.73 10.02 316.93 921.98 316.93 921.98 221.73 932 221.73 932 326.95"/><rect class="cls-2" x="439.53" y="266.23" width="45.15" height="1.56"/><path class="cls-1" d="M175.69,217.22h1.61l7,15.37h-1.85l-1.79-4h-8.31l-1.81,4h-1.77Zm4.25,9.79-3.47-7.79L173,227Z"/><path class="cls-1" d="M226.5,217.33h6.56a6,6,0,0,1,4.34,1.53,4.22,4.22,0,0,1,1.18,3v0c0,2.53-1.74,4-4.14,4.45l4.69,6.24H237l-4.43-5.93h-4.36v5.93H226.5Zm6.41,7.79c2.29,0,3.93-1.18,3.93-3.14v0c0-1.88-1.44-3-3.9-3h-4.71v6.19Z"/><path class="cls-1" d="M293.4,231.22A7.8,7.8,0,0,1,280.82,225v0a7.79,7.79,0,1,1,15.57,0v0a7.92,7.92,0,0,1-1.83,5.12l2,1.68-1.18,1.29Zm-1.26-1.11-2.84-2.42,1.16-1.29,2.81,2.55A6.43,6.43,0,0,0,294.6,225v0a6.07,6.07,0,0,0-6-6.3,6,6,0,0,0-6,6.26v0a6.07,6.07,0,0,0,6,6.3A5.75,5.75,0,0,0,292.13,230.11Z"/><path class="cls-1" d="M339,226.21v-8.88h1.72v8.77c0,3.29,1.74,5.15,4.67,5.15s4.6-1.7,4.6-5v-8.88h1.72v8.75c0,4.45-2.55,6.76-6.37,6.76S339,230.52,339,226.21Z"/><path class="cls-1" d="M395.18,217.33h1.72V232.6h-1.72Z"/><path class="cls-1" d="M444.64,218.92h-5.13v-1.59h12v1.59h-5.13V232.6h-1.74Z"/><path class="cls-1" d="M494,217.33h11v1.57h-9.31v5.21H504v1.57h-8.33V231h9.42v1.57H494Z"/><path class="cls-1" d="M547.13,225v0a7.69,7.69,0,0,1,7.72-7.9,8,8,0,0,1,6,2.42l-1.18,1.26a6.64,6.64,0,0,0-4.8-2.09,6,6,0,0,0-5.91,6.26v0a6,6,0,0,0,5.91,6.3,6.63,6.63,0,0,0,4.93-2.2l1.13,1.11a8,8,0,0,1-6.11,2.68A7.62,7.62,0,0,1,547.13,225Z"/><path class="cls-1" d="M607.16,218.92H602v-1.59h12v1.59H608.9V232.6h-1.74Z"/><path class="cls-1" d="M654.76,225v0a7.79,7.79,0,1,1,15.57,0v0a7.79,7.79,0,1,1-15.57,0Zm13.78,0v0a6.07,6.07,0,0,0-6-6.3,6,6,0,0,0-6,6.26v0a6.07,6.07,0,0,0,6,6.3A6,6,0,0,0,668.54,225Z"/><path class="cls-1" d="M712.08,230.37l1.07-1.26a7.27,7.27,0,0,0,5.23,2.16c2,0,3.4-1.09,3.4-2.6v0c0-1.42-.76-2.22-4-2.9-3.51-.76-5.13-1.9-5.13-4.41v0c0-2.4,2.11-4.17,5-4.17a8,8,0,0,1,5.36,1.88l-1,1.33a6.71,6.71,0,0,0-4.41-1.66c-2,0-3.25,1.09-3.25,2.46v0c0,1.44.78,2.25,4.14,3s5,2,5,4.32v0c0,2.62-2.18,4.32-5.21,4.32A8.93,8.93,0,0,1,712.08,230.37Z"/></g></g></svg>