<svg xmlns="http://www.w3.org/2000/svg" viewBox="0 0 1206 1198.89"><defs><style>.cls-1{fill:#fff;}.cls-2{fill:#dafa50;}</style></defs><title>logov2</title><g id="Capa_2" data-name="Capa 2"><g id="Capa_1-2" data-name="Capa 1"><path class="cls-1" d="M645.87,694.35H583.52l-43.1-97.24H350.55l-43.63,97.24H246.73L421.66,307.74h49.27Zm-51.9-16h27L460.57,323.79H432L271.6,678.3h24.93l43.63-97.24h210.7ZM541.7,559.78H349.26l96.51-215.32ZM374,543.74H517L445.72,383.8Z"/><path class="cls-1" d="M735.16,693H677.6v-384H958v54.43H735.16V478.87H934.39v53.87H735.16Zm-41.51-16h25.47V516.7H918.34V494.92H719.11V347.43H942V325.1H693.65Z"/><rect class="cls-2" x="559.78" y="891.44" width="85.22" height="1.59"/><path class="cls-1" d="M201.34,800.78h2.39L214,823.57h-2.75l-2.65-6H196.33l-2.68,6H191Zm6.3,14.51-5.14-11.54-5.17,11.54Z"/><path class="cls-1" d="M276.68,800.94h9.73a8.92,8.92,0,0,1,6.43,2.26,6.25,6.25,0,0,1,1.75,4.46v.07c0,3.75-2.59,5.95-6.14,6.59l7,9.25h-3.14l-6.56-8.79h-6.47v8.79h-2.55Zm9.5,11.54c3.39,0,5.82-1.74,5.82-4.65v-.07c0-2.78-2.13-4.46-5.79-4.46h-7v9.18Z"/><path class="cls-1" d="M375.88,821.53a11.57,11.57,0,0,1-18.65-9.21v-.07a11.54,11.54,0,1,1,23.08-.07v.07a11.74,11.74,0,0,1-2.71,7.6l3,2.49-1.74,1.91ZM374,819.88l-4.2-3.59,1.71-1.91,4.17,3.78a9.52,9.52,0,0,0,2-5.85v-.07c0-5.14-3.75-9.34-8.92-9.34s-8.86,4.14-8.86,9.28v.07c0,5.14,3.75,9.34,8.92,9.34A8.54,8.54,0,0,0,374,819.88Z"/><path class="cls-1" d="M443.53,814.1V800.94h2.55v13c0,4.88,2.59,7.63,6.92,7.63,4.17,0,6.82-2.52,6.82-7.47V800.94h2.55v13c0,6.59-3.78,10-9.44,10S443.53,820.5,443.53,814.1Z"/><path class="cls-1" d="M526.83,800.94h2.55v22.63h-2.55Z"/><path class="cls-1" d="M600.17,803.3h-7.6v-2.36h17.78v2.36h-7.6v20.27h-2.59Z"/><path class="cls-1" d="M673.31,800.94h16.36v2.33H675.87V811h12.35v2.33H675.87v7.92h14v2.33H673.31Z"/><path class="cls-1" d="M752.15,812.32v-.07a11.4,11.4,0,0,1,11.44-11.7,11.79,11.79,0,0,1,8.83,3.59L770.67,806a9.83,9.83,0,0,0-7.11-3.1c-5,0-8.76,4.07-8.76,9.28v.07c0,5.24,3.78,9.34,8.76,9.34,3.1,0,5.14-1.2,7.31-3.27l1.68,1.65a11.79,11.79,0,0,1-9.05,4A11.29,11.29,0,0,1,752.15,812.32Z"/><path class="cls-1" d="M841.17,803.3h-7.6v-2.36h17.78v2.36h-7.6v20.27h-2.59Z"/><path class="cls-1" d="M911.76,812.32v-.07a11.54,11.54,0,1,1,23.08-.07v.07a11.54,11.54,0,1,1-23.08.07Zm20.43,0v-.07c0-5.14-3.75-9.34-8.92-9.34s-8.86,4.14-8.86,9.28v.07c0,5.14,3.75,9.34,8.92,9.34S932.19,817.46,932.19,812.32Z"/><path class="cls-1" d="M996.77,820.27l1.58-1.87a10.78,10.78,0,0,0,7.76,3.2c3,0,5-1.62,5-3.85v-.06c0-2.1-1.13-3.3-5.88-4.3-5.21-1.13-7.6-2.81-7.6-6.53v-.07c0-3.56,3.13-6.18,7.44-6.18a11.81,11.81,0,0,1,8,2.78l-1.49,2a10,10,0,0,0-6.53-2.46c-2.94,0-4.82,1.62-4.82,3.65v.07c0,2.13,1.16,3.33,6.14,4.4s7.37,2.94,7.37,6.4v.06c0,3.88-3.23,6.4-7.73,6.4A13.24,13.24,0,0,1,996.77,820.27Z"/><polygon class="cls-1" points="1201.59 418.73 1195.71 418.73 1195.71 5.88 10.29 5.88 10.29 418.73 4.41 418.73 4.41 0 1201.59 0 1201.59 418.73"/><polygon class="cls-1" points="1206 1198.89 0 1198.89 0 775.75 14.69 775.75 14.69 1184.2 1191.31 1184.2 1191.31 775.75 1206 775.75 1206 1198.89"/></g></g></svg>