<svg xmlns="http://www.w3.org/2000/svg" viewBox="0 0 14.46 23.01"><defs><style>.cls-1{fill:#333;}</style></defs><title>phone</title><g id="Capa_2" data-name="Capa 2"><g id="Capa_1-2" data-name="Capa 1"><path id="_8" data-name="8" class="cls-1" d="M14.32,20.37,12.73,17A1.45,1.45,0,0,0,11,16.18l-1.89.5c-.27-.23-1.14-1.17-2.69-4.49S4.7,7.59,4.7,7.24l1.6-1.13a1.46,1.46,0,0,0,.51-1.83L5.22.87A1.51,1.51,0,0,0,3,.24l-1,.62A4.13,4.13,0,0,0,.31,3.21,8.4,8.4,0,0,0,.05,6.52a24.37,24.37,0,0,0,2.29,7.56,26.5,26.5,0,0,0,3.75,6C7.79,22,9.44,23,11,23a3.77,3.77,0,0,0,1.29-.23l1.08-.33a1.51,1.51,0,0,0,.92-2.08Z"/></g></g></svg>