<svg xmlns="http://www.w3.org/2000/svg" viewBox="0 0 18.6 18.6"><defs><style>.cls-1{fill:#dafa50;}</style></defs><title>instagramv</title><g id="Capa_2" data-name="Capa 2"><g id="Capa_1-2" data-name="Capa 1"><g id="Capa_2-2" data-name="Capa 2"><g id="Capa_1-2-2" data-name="Capa 1-2"><path class="cls-1" d="M13.06,0H5.54A5.55,5.55,0,0,0,0,5.54v7.52A5.55,5.55,0,0,0,5.54,18.6h7.52a5.55,5.55,0,0,0,5.54-5.54V5.54A5.55,5.55,0,0,0,13.06,0Zm3.67,13.06a3.67,3.67,0,0,1-3.67,3.67H5.54a3.67,3.67,0,0,1-3.67-3.67V5.54A3.67,3.67,0,0,1,5.54,1.87h7.52a3.67,3.67,0,0,1,3.67,3.67Z"/><path class="cls-1" d="M9.3,4.49A4.81,4.81,0,1,0,14.11,9.3,4.81,4.81,0,0,0,9.3,4.49Zm0,7.75A2.94,2.94,0,1,1,12.24,9.3h0A2.94,2.94,0,0,1,9.3,12.24Z"/><circle class="cls-1" cx="14.12" cy="4.52" r="1.15"/></g></g></g></g></svg>