<svg xmlns="http://www.w3.org/2000/svg" viewBox="0 0 21 20.06"><defs><style>.cls-1{fill:#333;}</style></defs><title>linkedin</title><g id="Capa_2" data-name="Capa 2"><g id="Capa_1-2" data-name="Capa 1"><path id="LinkedIn" class="cls-1" d="M21,12.3v7.76H16.5V12.82c0-1.82-.65-3.06-2.28-3.06a2.46,2.46,0,0,0-2.31,1.65,3.08,3.08,0,0,0-.15,1.1v7.56H7.26s.06-12.27,0-13.54h4.5V8.45l0,0h0v0a4.47,4.47,0,0,1,4.06-2.24C18.78,6.21,21,8.14,21,12.3ZM2.55,0a2.35,2.35,0,1,0-.06,4.68h0A2.35,2.35,0,1,0,2.55,0ZM.27,20.06h4.5V6.53H.27Z"/></g></g></svg>