<svg xmlns="http://www.w3.org/2000/svg" viewBox="0 0 32.06 24.91"><defs><style>.cls-1{fill:#9cff00;}</style></defs><title>scroll</title><g id="Capa_2" data-name="Capa 2"><g id="Capa_1-2" data-name="Capa 1"><path class="cls-1" d="M30.33,8.3,16,22.48,1.73,8.3A1,1,0,0,0,.3,8.3a1,1,0,0,0,0,1.43l15,14.88a1.14,1.14,0,0,0,.38.24,1,1,0,0,0,1.08-.23l15-14.88a1,1,0,0,0,0-1.43A1,1,0,0,0,30.33,8.3Z"/><path class="cls-1" d="M30.33.3,16,14.48,1.73.3A1,1,0,0,0,.3.3a1,1,0,0,0,0,1.43l15,14.88a1.14,1.14,0,0,0,.38.24,1,1,0,0,0,1.08-.23l15-14.88a1,1,0,0,0,0-1.43A1,1,0,0,0,30.33.3Z"/></g></g></svg>